/* XPM */ 
static char * ico32_xpm[] = {
"32 32 35 1",
" 	c None",
"!	c black",
"#	c #F7DA6F",
"$	c #F5CE3F",
"%	c #F8DE7E",
"&	c #F9E59C",
"'	c #F3C41F",
"(	c #F2C31F",
")	c #F0BB00",
"*	c #F1BC00",
"+	c #F4CC3C",
",	c #FAEAAE",
"-	c #F8E087",
".	c #F0BC00",
"0	c #FBEFBF",
"1	c #FCF2CF",
"2	c #FDF9E7",
"3	c #FEFDF7",
"4	c #FDF6DC",
"5	c #F7DA70",
"6	c #F2C41F",
"7	c #F5D357",
"8	c white",
"9	c #FCF3CF",
":	c #FFFEFC",
";	c #F7DD7E",
"<	c #FEFBF0",
"=	c #F9E087",
">	c #F8E28E",
"?	c #F6D55F",
"@	c #F1BF10",
"A	c #FBEEBE",
"B	c #FBEAAE",
"C	c #F4C92F",
"D	c #F5D14F",
"             #$$$$$%            ",
"          &'())*))))(+,         ",
"        -(*)*))*)).))*'(0       ",
"       +().(+&12341566..(7      ",
"      '*.6728888888889+(*)+     ",
"     6).'48888888888888&6*.+    ",
"    ().+:8888888888888882().+   ",
"   7*.+:888888888888888882'.(&  ",
"  ;6.(<888888888888888888806.'  ",
"  +)),8888888888888888888887).= ",
" >6))33333333333:88888888882*)( ",
" $*.?$*)*).)))).('66<,('(((07)(>",
" '.(<=.))*)*))..))**?@*)).(80*)$",
" (*'8-.))))).))))**..)))*.-8<6*@",
"A)*58=.*..)).*)*)..*).**)62886*)",
";**-8-)))).)*)).***..*)..+888(**",
"%*)-8:336).)*(39(..*.).)608886**",
"B))-88886...)(887***)))*(8888'**",
" (*(8888')).)(881'..*)).=8883(*.",
" ()6:888'))*)'8886**.**6<8884))$",
" C*)1888(*.**'888&)..**788885.)#",
" #(*78886)***'8883(*))69888:'.6 ",
"  '.(488==-==-8888&==-=8888-))7 ",
"  D6*+88888888888888888888<(*(  ",
"   6)(5888888888888888888:+**7  ",
"   ;'.'58888888888888888:+.)6   ",
"    D6)(5:8888888888888<+..'    ",
"     C6))(18888888888:=6..(?    ",
"      ?6.)((&238883456*..6>     ",
"       >+(*)*)('''6)**)'7       ",
"         ?+(.))**.)))'7%        ",
"            D(*)))*C?           "};